<svg width="20" height="20" viewBox="0 0 20 20" fill="none" xmlns="http://www.w3.org/2000/svg">
<g clip-path="url(#clip0_3280_921)">
<path d="M16.6673 18.3335H15.0007V16.6668C15.0006 16.0038 14.7373 15.3679 14.2684 14.8991C13.7996 14.4302 13.1637 14.1668 12.5007 14.1668H7.50065C6.83761 14.1668 6.20172 14.4302 5.73288 14.8991C5.26404 15.3679 5.00065 16.0038 5.00065 16.6668V18.3335H3.33398V16.6668C3.33398 15.5618 3.77297 14.502 4.55437 13.7206C5.33577 12.9391 6.39558 12.5002 7.50065 12.5002H12.5007C13.6057 12.5002 14.6655 12.9391 15.4469 13.7206C16.2283 14.502 16.6673 15.5618 16.6673 16.6668V18.3335ZM10.0007 10.8335C9.34404 10.8335 8.69386 10.7042 8.08723 10.4529C7.48061 10.2016 6.92941 9.83332 6.46512 9.36903C6.00082 8.90474 5.63253 8.35354 5.38125 7.74691C5.12998 7.14029 5.00065 6.49011 5.00065 5.8335C5.00065 5.17689 5.12998 4.52671 5.38125 3.92008C5.63253 3.31345 6.00082 2.76226 6.46512 2.29796C6.92941 1.83367 7.48061 1.46537 8.08723 1.2141C8.69386 0.962825 9.34404 0.833496 10.0007 0.833496C11.3267 0.833496 12.5985 1.36028 13.5362 2.29796C14.4739 3.23564 15.0007 4.50741 15.0007 5.8335C15.0007 7.15958 14.4739 8.43135 13.5362 9.36903C12.5985 10.3067 11.3267 10.8335 10.0007 10.8335ZM10.0007 9.16683C10.8847 9.16683 11.7326 8.81564 12.3577 8.19052C12.9828 7.5654 13.334 6.71755 13.334 5.8335C13.334 4.94944 12.9828 4.10159 12.3577 3.47647C11.7326 2.85135 10.8847 2.50016 10.0007 2.50016C9.1166 2.50016 8.26875 2.85135 7.64363 3.47647C7.01851 4.10159 6.66732 4.94944 6.66732 5.8335C6.66732 6.71755 7.01851 7.5654 7.64363 8.19052C8.26875 8.81564 9.1166 9.16683 10.0007 9.16683Z" fill="#6D787E"/>
</g>
<defs>
<clipPath id="clip0_3280_921">
<rect width="20" height="20" fill="white"/>
</clipPath>
</defs>
</svg>
